<svg xmlns="http://www.w3.org/2000/svg" version="1.1" xmlns:xlink="http://www.w3.org/1999/xlink" xmlns:svgjs="http://svgjs.dev/svgjs" width="2000" height="1607" viewBox="0 0 2000 1607"><g transform="matrix(1,0,0,1,0,0)"><svg viewBox="0 0 448 360" data-background-color="#ffffff" preserveAspectRatio="xMidYMid meet" height="1607" width="2000" xmlns="http://www.w3.org/2000/svg" xmlns:xlink="http://www.w3.org/1999/xlink"><g id="tight-bounds" transform="matrix(1,0,0,1,0,0)"><svg viewBox="0 0 448 360" height="360" width="448"><rect width="448" height="360" fill="url(#a5b80439-2f06-4a6d-ad09-4927de82de55)" mask="url(#f5c0a604-8c80-41a8-8b76-4b82698533e0)" data-fill-palette-color="tertiary"></rect><g><svg></svg></g><g><svg viewBox="0 0 448 360" height="360" width="448"><g><path d="M193.855 44.683c1.378 0 2.494 1.116 2.495 2.494 0 1.378-1.116 2.494-2.495 2.495h-23.846l-17.167 17.167c-0.973 0.973-2.551 0.973-3.53 0-0.973-0.973-0.973-2.551 0-3.529l13.644-13.645h-40.378c-11.518 0-19.151 2.688-23.815 8.113-4.739 5.519-6.66 14.056-6.66 25.63 0 0.069 0 0.137-0.006 0.206l0.212 36.692 14.692-14.692c0.973-0.973 2.551-0.973 3.53 0 0.973 0.973 0.973 2.551 0 3.53l-18.178 18.178c0.206 35.832 0.193 71.358-0.013 107.19 25.486 25.2 50.617 50.312 75.811 75.791h25.38c1.378 0 2.494 1.116 2.495 2.495 0 1.378-1.116 2.494-2.495 2.494h-20.448l25.942 26.241 0.006-0.006c8.188 8.188 15.577 12.859 22.824 13.413 7.146 0.543 14.442-2.956 22.586-11.093l28.555-28.555h-20.722c-1.378 0-2.494-1.116-2.495-2.494 0-1.378 1.116-2.494 2.495-2.495h25.711l16.625-16.625c0.973-0.973 2.551-0.973 3.529 0 0.973 0.973 0.973 2.551 0 3.53l-13.101 13.102h40.377c11.518 0 19.151-2.688 23.815-8.113 4.739-5.519 6.66-14.056 6.66-25.63h0.013l-0.212-36.898-16.014 16.014c-0.973 0.973-2.551 0.973-3.53 0-0.973-0.973-0.973-2.551 0-3.53l19.5-19.5c-0.206-35.832-0.193-71.358 0.013-107.19-25.486-25.2-50.617-50.312-75.811-75.791h-26.147c-1.378 0-2.494-1.116-2.495-2.495 0-1.378 1.116-2.494 2.495-2.494h21.215l-25.824-26.123c-0.044-0.037-0.081-0.075-0.124-0.112-8.188-8.188-15.577-12.859-22.824-13.413-7.146-0.543-14.442 2.956-22.586 11.093l-28.555 28.555h18.858zM122.578 44.683h45.367l32.078-32.078c9.248-9.248 17.81-13.195 26.484-12.534 8.568 0.649 16.956 5.824 25.985 14.854 0.05 0.05 0.094 0.094 0.137 0.143l29.278 29.615h43.508c13.071 0 21.919 3.268 27.594 9.871 5.6 6.517 7.864 16.101 7.864 28.867 0 0.081-0.006 0.156-0.012 0.23l-0.225 39.742 28.43 28.112 0.006-0.006c9.03 9.03 14.206 17.411 14.854 25.985 0.661 8.674-3.293 17.236-12.534 26.484l-30.768 30.768 0.237 41.843h0.012c0 12.765-2.27 22.35-7.864 28.867-5.675 6.604-14.524 9.872-27.594 9.871h-45.366l-32.078 32.078c-9.248 9.248-17.81 13.195-26.484 12.534-8.568-0.649-16.956-5.824-25.985-14.854l0.006-0.006-29.421-29.758h-43.509c-13.071 0-21.919-3.268-27.594-9.872-5.6-6.517-7.864-16.101-7.863-28.866h0.012l0.231-39.972-28.293-27.969c-0.05-0.044-0.1-0.087-0.143-0.137-9.03-9.03-14.206-17.411-14.854-25.985-0.661-8.674 3.293-17.236 12.534-26.484l30.768-30.768-0.237-41.607c-0.006-0.075-0.012-0.156-0.012-0.23 0-12.765 2.27-22.35 7.864-28.867 5.675-6.604 14.524-9.872 27.594-9.871zM87.682 179.997l-0.274-47.724-27.276 27.276c-8.138 8.138-11.636 15.44-11.094 22.587 0.549 7.246 5.226 14.642 13.413 22.823 0.037 0.037 0.081 0.081 0.113 0.125l24.837 24.551 0.281-49.644zM92.303 241.483l-0.2 35.09h0.013c0 11.58 1.921 20.117 6.66 25.63 4.664 5.432 12.297 8.113 23.815 8.113h38.576l-33.55-33.936-35.308-34.903zM325.415 49.672h-38.575l33.549 33.936 35.308 34.902 0.2-34.884c-0.006-0.069-0.006-0.137-0.007-0.205 0-11.58-1.921-20.117-6.66-25.63-4.664-5.432-12.297-8.113-23.815-8.113zM360.599 130.352l-0.281 49.645 0.274 47.724 27.276-27.276c8.138-8.138 11.636-15.44 11.094-22.587-0.549-7.252-5.226-14.642-13.413-22.824l0.006-0.006-24.956-24.669z" fill="url(#a5b80439-2f06-4a6d-ad09-4927de82de55)" fill-rule="nonzero" stroke="none" stroke-width="1" stroke-linecap="butt" stroke-linejoin="miter" stroke-miterlimit="10" stroke-dasharray="" stroke-dashoffset="0" font-family="none" font-weight="none" font-size="none" text-anchor="none" style="mix-blend-mode: normal" data-fill-palette-color="tertiary"></path></g><g transform="matrix(1,0,0,1,138.9683257918552,90)"><svg viewBox="0 0 170.0633484162896 180" height="180" width="170.0633484162896"><g><svg viewBox="0 0 170.0633484162896 180" height="180" width="170.0633484162896"><g><svg viewBox="0 0 170.0633484162896 180" height="180" width="170.0633484162896"><g id="textblocktransform"><svg viewBox="0 0 170.0633484162896 180" height="180" width="170.0633484162896" id="textblock"><g><svg viewBox="0 0 170.0633484162896 180" height="180" width="170.0633484162896"><g transform="matrix(1,0,0,1,0,0)"><svg width="170.0633484162896" viewBox="0.85 -36.95 52.199999999999996 55.25" height="180" data-palette-color="url(#851a6193-322c-4619-8d0a-705ed1611c8a)"></svg></g></svg></g></svg></g></svg></g></svg></g></svg></g></svg></g><defs></defs><mask id="2e9d1dcb-b0f3-4dcb-b07b-ef7bbe18075e"><g id="SvgjsG1059"><svg viewBox="0 0 448 360" height="360" width="448"><g><svg></svg></g><g><svg viewBox="0 0 448 360" height="360" width="448"><g></g><g transform="matrix(1,0,0,1,138.9683257918552,90)"><svg viewBox="0 0 170.0633484162896 180" height="180" width="170.0633484162896"><g><svg viewBox="0 0 170.0633484162896 180" height="180" width="170.0633484162896"><g><svg viewBox="0 0 170.0633484162896 180" height="180" width="170.0633484162896"><g id="SvgjsG1058"><svg viewBox="0 0 170.0633484162896 180" height="180" width="170.0633484162896" id="SvgjsSvg1057"><g><svg viewBox="0 0 170.0633484162896 180" height="180" width="170.0633484162896"><g transform="matrix(1,0,0,1,0,0)"><svg width="170.0633484162896" viewBox="0.85 -36.95 52.199999999999996 55.25" height="180" data-palette-color="url(#851a6193-322c-4619-8d0a-705ed1611c8a)"><path d="M23.8-36.95L23.8-36.95Q25.7-36.95 27.75-36.25 29.8-35.55 31.35-34.45L31.35-34.45Q30.85-31.9 30.43-29.85 30-27.8 29.65-26.13 29.3-24.45 28.98-23.08 28.65-21.7 28.35-20.5L28.35-20.5Q27.15-16 25.88-12.38 24.6-8.75 23.18-5.85 21.75-2.95 20.18-0.7 18.6 1.55 16.8 3.25L16.8 3.25Q15.05 4.9 13.3 5.95 11.55 7 10.05 7.3L10.05 7.3Q8.05 7.3 6.35 6.85 4.65 6.4 3.43 5.63 2.2 4.85 1.53 3.78 0.85 2.7 0.85 1.4L0.85 1.4Q0.85 0 1.55-2.13 2.25-4.25 3.7-7.15L3.7-7.15Q4.3-7.1 5.1-6.85 5.9-6.6 6.7-6.25 7.5-5.9 8.15-5.48 8.8-5.05 9.1-4.65L9.1-4.65Q7.5-3 6.5-1.03 5.5 0.95 5.5 2.4L5.5 2.4Q5.5 3.25 5.83 3.93 6.15 4.6 6.95 5.15L6.95 5.15Q10 4 12.9 0.88 15.8-2.25 18.05-6.9L18.05-6.9Q19.4-9.65 20.5-13.2 21.6-16.75 22.38-20.33 23.15-23.9 23.58-27.18 24-30.45 24-32.7L24-32.7Q24-33.05 23.98-33.68 23.95-34.3 23.93-34.98 23.9-35.65 23.85-36.2 23.8-36.75 23.8-36.95ZM26.3 16.55L26.3 16.55Q25.6 16.35 25.5 15.05L25.5 15.05Q25.3 14.4 25.22 13.5 25.15 12.6 25.15 11.45L25.15 11.45Q25.15 10.4 25.5 8.58 25.85 6.75 26.47 4.45 27.1 2.15 28-0.53 28.9-3.2 30-5.95L30-5.95Q31.35-9.4 32.35-11.93 33.35-14.45 34.02-16.3 34.7-18.15 35.12-19.35 35.55-20.55 35.8-21.4L35.8-21.4Q36-22 36.4-22.85 36.8-23.7 37.32-24.58 37.85-25.45 38.4-26.23 38.95-27 39.4-27.4L39.4-27.4Q41.15-27.15 42.7-26.5 44.25-25.85 44.6-25.25L44.6-25.25Q43.9-24.6 43-23.23 42.1-21.85 41.25-20.23 40.4-18.6 39.7-16.9 39-15.2 38.65-13.9L38.65-13.9Q39.15-14.75 39.95-15.75 40.75-16.75 42.4-18.5L42.4-18.5Q44.25-20.4 45.87-21.43 47.5-22.45 48.7-22.45L48.7-22.45Q50.6-22.45 51.82-21.4 53.05-20.35 53.05-18.7L53.05-18.7Q53.05-15.1 51.85-11.58 50.65-8.05 48.4-5.2L48.4-5.2Q47.55-4.1 46.4-3.1 45.25-2.1 44-1.33 42.75-0.55 41.55-0.1 40.35 0.35 39.4 0.35L39.4 0.35Q38.5 0.35 37.82-0.03 37.15-0.4 36.9-0.95L36.9-0.95Q38.85-2.1 40.7-4.15 42.55-6.2 44.12-8.88 45.7-11.55 46.87-14.65 48.05-17.75 48.65-20.95L48.65-20.95Q46.75-19.95 45.22-18.78 43.7-17.6 42.2-15.7L42.2-15.7Q40.4-13.5 39.35-12.15 38.3-10.8 37.62-9.85 36.95-8.9 36.52-8.08 36.1-7.25 35.6-6.05L35.6-6.05Q34.9-4.45 33.97-1.83 33.05 0.8 32.07 4.05 31.1 7.3 30.12 10.98 29.15 14.65 28.25 18.3L28.25 18.3Q27.7 18.2 27.3 17.5L27.3 17.5Q26.9 17.05 26.72 16.85 26.55 16.65 26.3 16.55Z" opacity="1" transform="matrix(1,0,0,1,0,0)" fill="white" class="wordmark-text-0" id="SvgjsPath1056"></path></svg></g></svg></g></svg></g></svg></g></svg></g></svg></g></svg></g><defs><mask></mask></defs></svg></g></mask><linearGradient x1="0" x2="1" y1="0.548" y2="0.55" id="851a6193-322c-4619-8d0a-705ed1611c8a"><stop stop-color="#ff6cab" offset="0"></stop><stop stop-color="#7366ff" offset="1"></stop></linearGradient><rect width="448" height="360" fill="url(#851a6193-322c-4619-8d0a-705ed1611c8a)" mask="url(#2e9d1dcb-b0f3-4dcb-b07b-ef7bbe18075e)" data-fill-palette-color="primary"></rect><mask id="f5c0a604-8c80-41a8-8b76-4b82698533e0"><g id="SvgjsG1066"><svg viewBox="0 0 448 360" height="360" width="448"><g><svg></svg></g><g><svg viewBox="0 0 448 360" height="360" width="448"><g><path d="M193.855 44.683c1.378 0 2.494 1.116 2.495 2.494 0 1.378-1.116 2.494-2.495 2.495h-23.846l-17.167 17.167c-0.973 0.973-2.551 0.973-3.53 0-0.973-0.973-0.973-2.551 0-3.529l13.644-13.645h-40.378c-11.518 0-19.151 2.688-23.815 8.113-4.739 5.519-6.66 14.056-6.66 25.63 0 0.069 0 0.137-0.006 0.206l0.212 36.692 14.692-14.692c0.973-0.973 2.551-0.973 3.53 0 0.973 0.973 0.973 2.551 0 3.53l-18.178 18.178c0.206 35.832 0.193 71.358-0.013 107.19 25.486 25.2 50.617 50.312 75.811 75.791h25.38c1.378 0 2.494 1.116 2.495 2.495 0 1.378-1.116 2.494-2.495 2.494h-20.448l25.942 26.241 0.006-0.006c8.188 8.188 15.577 12.859 22.824 13.413 7.146 0.543 14.442-2.956 22.586-11.093l28.555-28.555h-20.722c-1.378 0-2.494-1.116-2.495-2.494 0-1.378 1.116-2.494 2.495-2.495h25.711l16.625-16.625c0.973-0.973 2.551-0.973 3.529 0 0.973 0.973 0.973 2.551 0 3.53l-13.101 13.102h40.377c11.518 0 19.151-2.688 23.815-8.113 4.739-5.519 6.66-14.056 6.66-25.63h0.013l-0.212-36.898-16.014 16.014c-0.973 0.973-2.551 0.973-3.53 0-0.973-0.973-0.973-2.551 0-3.53l19.5-19.5c-0.206-35.832-0.193-71.358 0.013-107.19-25.486-25.2-50.617-50.312-75.811-75.791h-26.147c-1.378 0-2.494-1.116-2.495-2.495 0-1.378 1.116-2.494 2.495-2.494h21.215l-25.824-26.123c-0.044-0.037-0.081-0.075-0.124-0.112-8.188-8.188-15.577-12.859-22.824-13.413-7.146-0.543-14.442 2.956-22.586 11.093l-28.555 28.555h18.858zM122.578 44.683h45.367l32.078-32.078c9.248-9.248 17.81-13.195 26.484-12.534 8.568 0.649 16.956 5.824 25.985 14.854 0.05 0.05 0.094 0.094 0.137 0.143l29.278 29.615h43.508c13.071 0 21.919 3.268 27.594 9.871 5.6 6.517 7.864 16.101 7.864 28.867 0 0.081-0.006 0.156-0.012 0.23l-0.225 39.742 28.43 28.112 0.006-0.006c9.03 9.03 14.206 17.411 14.854 25.985 0.661 8.674-3.293 17.236-12.534 26.484l-30.768 30.768 0.237 41.843h0.012c0 12.765-2.27 22.35-7.864 28.867-5.675 6.604-14.524 9.872-27.594 9.871h-45.366l-32.078 32.078c-9.248 9.248-17.81 13.195-26.484 12.534-8.568-0.649-16.956-5.824-25.985-14.854l0.006-0.006-29.421-29.758h-43.509c-13.071 0-21.919-3.268-27.594-9.872-5.6-6.517-7.864-16.101-7.863-28.866h0.012l0.231-39.972-28.293-27.969c-0.05-0.044-0.1-0.087-0.143-0.137-9.03-9.03-14.206-17.411-14.854-25.985-0.661-8.674 3.293-17.236 12.534-26.484l30.768-30.768-0.237-41.607c-0.006-0.075-0.012-0.156-0.012-0.23 0-12.765 2.27-22.35 7.864-28.867 5.675-6.604 14.524-9.872 27.594-9.871zM87.682 179.997l-0.274-47.724-27.276 27.276c-8.138 8.138-11.636 15.44-11.094 22.587 0.549 7.246 5.226 14.642 13.413 22.823 0.037 0.037 0.081 0.081 0.113 0.125l24.837 24.551 0.281-49.644zM92.303 241.483l-0.2 35.09h0.013c0 11.58 1.921 20.117 6.66 25.63 4.664 5.432 12.297 8.113 23.815 8.113h38.576l-33.55-33.936-35.308-34.903zM325.415 49.672h-38.575l33.549 33.936 35.308 34.902 0.2-34.884c-0.006-0.069-0.006-0.137-0.007-0.205 0-11.58-1.921-20.117-6.66-25.63-4.664-5.432-12.297-8.113-23.815-8.113zM360.599 130.352l-0.281 49.645 0.274 47.724 27.276-27.276c8.138-8.138 11.636-15.44 11.094-22.587-0.549-7.252-5.226-14.642-13.413-22.824l0.006-0.006-24.956-24.669z" fill="white" fill-rule="nonzero" stroke="none" stroke-width="1" stroke-linecap="butt" stroke-linejoin="miter" stroke-miterlimit="10" stroke-dasharray="" stroke-dashoffset="0" font-family="none" font-weight="none" font-size="none" text-anchor="none" style="mix-blend-mode: normal"></path></g><g transform="matrix(1,0,0,1,138.9683257918552,90)"><svg viewBox="0 0 170.0633484162896 180" height="180" width="170.0633484162896"><g><svg viewBox="0 0 170.0633484162896 180" height="180" width="170.0633484162896"><g><svg viewBox="0 0 170.0633484162896 180" height="180" width="170.0633484162896"><g id="SvgjsG1065"><svg viewBox="0 0 170.0633484162896 180" height="180" width="170.0633484162896" id="SvgjsSvg1064"><g><svg viewBox="0 0 170.0633484162896 180" height="180" width="170.0633484162896"><g transform="matrix(1,0,0,1,0,0)"><svg width="170.0633484162896" viewBox="0.85 -36.95 52.199999999999996 55.25" height="180" data-palette-color="url(#851a6193-322c-4619-8d0a-705ed1611c8a)"></svg></g></svg></g></svg></g></svg></g></svg></g></svg></g></svg></g><defs><mask></mask></defs><mask><g id="SvgjsG1063"><svg viewBox="0 0 448 360" height="360" width="448"><g><svg></svg></g><g><svg viewBox="0 0 448 360" height="360" width="448"><g></g><g transform="matrix(1,0,0,1,138.9683257918552,90)"><svg viewBox="0 0 170.0633484162896 180" height="180" width="170.0633484162896"><g><svg viewBox="0 0 170.0633484162896 180" height="180" width="170.0633484162896"><g><svg viewBox="0 0 170.0633484162896 180" height="180" width="170.0633484162896"><g id="SvgjsG1062"><svg viewBox="0 0 170.0633484162896 180" height="180" width="170.0633484162896" id="SvgjsSvg1061"><g><svg viewBox="0 0 170.0633484162896 180" height="180" width="170.0633484162896"><g transform="matrix(1,0,0,1,0,0)"><svg width="170.0633484162896" viewBox="0.85 -36.95 52.199999999999996 55.25" height="180" data-palette-color="url(#851a6193-322c-4619-8d0a-705ed1611c8a)"></svg></g></svg></g></svg></g></svg></g></svg></g></svg></g></svg></g><defs><mask></mask></defs></svg></g></mask></svg></g></mask><linearGradient x1="0" x2="1" y1="0.548" y2="0.55" id="a5b80439-2f06-4a6d-ad09-4927de82de55"><stop stop-color="#ff6cab" offset="0"></stop><stop stop-color="#7366ff" offset="1"></stop></linearGradient></svg><rect width="448" height="360" fill="none" stroke="none" visibility="hidden"></rect></g></svg></g></svg>